<mxGraphModel dx="729" dy="545" grid="1" gridSize="10" guides="1" tooltips="1" connect="1" arrows="1" fold="1" page="1" pageScale="1" pageWidth="850" pageHeight="1100" background="none"><root><mxCell id="0"/><mxCell id="1" parent="0"/><mxCell id="131" value="" style="rounded=1;whiteSpace=wrap;html=1;labelBackgroundColor=none;fontSize=13;fillColor=#9AC7BF;opacity=60;glass=0;shadow=0;strokeColor=none;comic=0;fontStyle=1" parent="1" vertex="1"><mxGeometry x="263.7967479674797" y="79.56877323420075" width="375.9349593495935" height="494.2007434944238" as="geometry"/></mxCell><mxCell id="2" value="a&lt;sub&gt;1&lt;/sub&gt;&lt;sup&gt;[1]&lt;/sup&gt;" style="ellipse;whiteSpace=wrap;html=1;aspect=fixed;fontStyle=1;fontSize=13;spacingTop=-7;" parent="1" vertex="1"><mxGeometry x="282.910569105691" y="136.02973977695166" width="65" height="65" as="geometry"/></mxCell><mxCell id="3" value="a&lt;sub&gt;2&lt;/sub&gt;&lt;sup&gt;[1]&lt;/sup&gt;" style="ellipse;whiteSpace=wrap;html=1;aspect=fixed;fontStyle=1;fontSize=13;spacingTop=-7;" parent="1" vertex="1"><mxGeometry x="282.910569105691" y="221.97769516728624" width="65" height="65" as="geometry"/></mxCell><mxCell id="4" value="a&lt;sub&gt;3&lt;/sub&gt;&lt;sup&gt;[1]&lt;/sup&gt;" style="ellipse;whiteSpace=wrap;html=1;aspect=fixed;fontStyle=1;fontSize=13;spacingTop=-7;" parent="1" vertex="1"><mxGeometry x="282.910569105691" y="307.9256505576208" width="65" height="65" as="geometry"/></mxCell><mxCell id="5" value="a&lt;sub&gt;4&lt;/sub&gt;&lt;sup&gt;[1]&lt;/sup&gt;" style="ellipse;whiteSpace=wrap;html=1;aspect=fixed;fontStyle=1;fontSize=13;spacingTop=-7;" parent="1" vertex="1"><mxGeometry x="282.910569105691" y="393.8736059479554" width="65" height="65" as="geometry"/></mxCell><mxCell id="6" value="a&lt;sub&gt;5&lt;/sub&gt;&lt;sup&gt;[1]&lt;/sup&gt;" style="ellipse;whiteSpace=wrap;html=1;aspect=fixed;fontStyle=1;fontSize=13;spacingTop=-7;" parent="1" vertex="1"><mxGeometry x="282.910569105691" y="479.82156133829" width="65" height="65" as="geometry"/></mxCell><mxCell id="7" value="a&lt;sub&gt;1&lt;/sub&gt;&lt;sup&gt;[2]&lt;/sup&gt;" style="ellipse;whiteSpace=wrap;html=1;aspect=fixed;fontStyle=1;fontSize=13;spacingTop=-7;" parent="1" vertex="1"><mxGeometry x="426.6504065040651" y="136.02973977695166" width="65" height="65" as="geometry"/></mxCell><mxCell id="17" value="" style="edgeStyle=orthogonalEdgeStyle;rounded=0;html=1;entryX=0;entryY=0.5;jettySize=auto;orthogonalLoop=1;fontStyle=1;fontSize=13;spacingTop=-7;" parent="1" source="2" target="7" edge="1"><mxGeometry relative="1" as="geometry"/></mxCell><mxCell id="26" value="" style="edgeStyle=none;rounded=0;html=1;exitX=1;exitY=0.5;entryX=0;entryY=0.5;jettySize=auto;orthogonalLoop=1;fontStyle=1;fontSize=13;spacingTop=-7;" parent="1" source="3" target="7" edge="1"><mxGeometry relative="1" as="geometry"/></mxCell><mxCell id="27" value="" style="edgeStyle=none;rounded=0;html=1;exitX=1;exitY=0.5;entryX=0;entryY=0.5;jettySize=auto;orthogonalLoop=1;fontStyle=1;fontSize=13;spacingTop=-7;" parent="1" source="4" target="7" edge="1"><mxGeometry relative="1" as="geometry"/></mxCell><mxCell id="28" value="" style="edgeStyle=none;rounded=0;html=1;exitX=1;exitY=0.5;entryX=0;entryY=0.5;jettySize=auto;orthogonalLoop=1;fontStyle=1;fontSize=13;spacingTop=-7;" parent="1" source="5" target="7" edge="1"><mxGeometry relative="1" as="geometry"/></mxCell><mxCell id="29" value="" style="edgeStyle=none;rounded=0;html=1;exitX=1;exitY=0.5;entryX=0;entryY=0.5;jettySize=auto;orthogonalLoop=1;fontStyle=1;fontSize=13;spacingTop=-7;" parent="1" source="6" target="7" edge="1"><mxGeometry relative="1" as="geometry"/></mxCell><mxCell id="8" value="a&lt;sub&gt;2&lt;/sub&gt;&lt;sup&gt;[2]&lt;/sup&gt;" style="ellipse;whiteSpace=wrap;html=1;aspect=fixed;fontStyle=1;fontSize=13;spacingTop=-7;" parent="1" vertex="1"><mxGeometry x="426.6504065040651" y="221.97769516728624" width="65" height="65" as="geometry"/></mxCell><mxCell id="22" value="" style="edgeStyle=none;rounded=0;html=1;exitX=1;exitY=0.5;entryX=0;entryY=0.5;jettySize=auto;orthogonalLoop=1;fontStyle=1;fontSize=13;spacingTop=-7;" parent="1" source="2" target="8" edge="1"><mxGeometry relative="1" as="geometry"/></mxCell><mxCell id="30" value="" style="edgeStyle=none;rounded=0;html=1;exitX=1;exitY=0.5;entryX=0;entryY=0.5;jettySize=auto;orthogonalLoop=1;fontStyle=1;fontSize=13;spacingTop=-7;" parent="1" source="3" target="8" edge="1"><mxGeometry relative="1" as="geometry"/></mxCell><mxCell id="36" value="" style="edgeStyle=none;rounded=0;html=1;exitX=1;exitY=0.5;entryX=0;entryY=0.5;jettySize=auto;orthogonalLoop=1;fontStyle=1;fontSize=13;spacingTop=-7;" parent="1" source="4" target="8" edge="1"><mxGeometry relative="1" as="geometry"/></mxCell><mxCell id="39" value="" style="edgeStyle=none;rounded=0;html=1;exitX=1;exitY=0.5;entryX=0;entryY=0.5;jettySize=auto;orthogonalLoop=1;fontStyle=1;fontSize=13;spacingTop=-7;" parent="1" source="5" target="8" edge="1"><mxGeometry relative="1" as="geometry"/></mxCell><mxCell id="44" value="" style="edgeStyle=none;rounded=0;html=1;exitX=1;exitY=0.5;entryX=0;entryY=0.5;jettySize=auto;orthogonalLoop=1;fontStyle=1;fontSize=13;spacingTop=-7;" parent="1" source="6" target="8" edge="1"><mxGeometry relative="1" as="geometry"/></mxCell><mxCell id="9" value="a&lt;sub&gt;3&lt;/sub&gt;&lt;sup&gt;[2]&lt;/sup&gt;" style="ellipse;whiteSpace=wrap;html=1;aspect=fixed;fontStyle=1;fontSize=13;spacingTop=-7;" parent="1" vertex="1"><mxGeometry x="426.6504065040651" y="307.9256505576208" width="65" height="65" as="geometry"/></mxCell><mxCell id="23" value="" style="edgeStyle=none;rounded=0;html=1;exitX=1;exitY=0.5;entryX=0;entryY=0.5;jettySize=auto;orthogonalLoop=1;fontStyle=1;fontSize=13;spacingTop=-7;" parent="1" source="2" target="9" edge="1"><mxGeometry relative="1" as="geometry"/></mxCell><mxCell id="31" value="" style="edgeStyle=none;rounded=0;html=1;exitX=1;exitY=0.5;entryX=0;entryY=0.5;jettySize=auto;orthogonalLoop=1;fontStyle=1;fontSize=13;spacingTop=-7;" parent="1" source="3" target="9" edge="1"><mxGeometry relative="1" as="geometry"/></mxCell><mxCell id="37" value="" style="edgeStyle=none;rounded=0;html=1;exitX=1;exitY=0.5;jettySize=auto;orthogonalLoop=1;fontStyle=1;fontSize=13;spacingTop=-7;" parent="1" source="4" target="9" edge="1"><mxGeometry relative="1" as="geometry"/></mxCell><mxCell id="40" value="" style="edgeStyle=none;rounded=0;html=1;exitX=1;exitY=0.5;entryX=0;entryY=0.5;jettySize=auto;orthogonalLoop=1;fontStyle=1;fontSize=13;spacingTop=-7;" parent="1" source="5" target="9" edge="1"><mxGeometry relative="1" as="geometry"/></mxCell><mxCell id="45" value="" style="edgeStyle=none;rounded=0;html=1;exitX=1;exitY=0.5;entryX=0;entryY=0.5;jettySize=auto;orthogonalLoop=1;fontStyle=1;fontSize=13;spacingTop=-7;" parent="1" source="6" target="9" edge="1"><mxGeometry relative="1" as="geometry"/></mxCell><mxCell id="10" value="a&lt;sub&gt;4&lt;/sub&gt;&lt;sup&gt;[2]&lt;/sup&gt;" style="ellipse;whiteSpace=wrap;html=1;aspect=fixed;fontStyle=1;fontSize=13;spacingTop=-7;" parent="1" vertex="1"><mxGeometry x="426.6504065040651" y="393.8736059479554" width="65" height="65" as="geometry"/></mxCell><mxCell id="24" value="" style="edgeStyle=none;rounded=0;html=1;exitX=1;exitY=0.5;entryX=0;entryY=0.5;jettySize=auto;orthogonalLoop=1;fontStyle=1;fontSize=13;spacingTop=-7;" parent="1" source="2" target="10" edge="1"><mxGeometry relative="1" as="geometry"/></mxCell><mxCell id="33" value="" style="edgeStyle=none;rounded=0;html=1;exitX=1;exitY=0.5;entryX=0;entryY=0.5;jettySize=auto;orthogonalLoop=1;fontStyle=1;fontSize=13;spacingTop=-7;" parent="1" source="3" target="10" edge="1"><mxGeometry relative="1" as="geometry"/></mxCell><mxCell id="34" value="" style="edgeStyle=none;rounded=0;html=1;exitX=1;exitY=0.5;entryX=0;entryY=0.5;jettySize=auto;orthogonalLoop=1;fontStyle=1;fontSize=13;spacingTop=-7;" parent="1" source="4" target="10" edge="1"><mxGeometry relative="1" as="geometry"/></mxCell><mxCell id="41" value="" style="edgeStyle=none;rounded=0;html=1;exitX=1;exitY=0.5;entryX=0;entryY=0.5;jettySize=auto;orthogonalLoop=1;fontStyle=1;fontSize=13;spacingTop=-7;" parent="1" source="5" target="10" edge="1"><mxGeometry relative="1" as="geometry"/></mxCell><mxCell id="46" value="" style="edgeStyle=none;rounded=0;html=1;exitX=1;exitY=0.5;entryX=0;entryY=0.5;jettySize=auto;orthogonalLoop=1;fontStyle=1;fontSize=13;spacingTop=-7;" parent="1" source="6" target="10" edge="1"><mxGeometry relative="1" as="geometry"/></mxCell><mxCell id="11" value="a&lt;sub&gt;5&lt;/sub&gt;&lt;sup&gt;[2]&lt;/sup&gt;" style="ellipse;whiteSpace=wrap;html=1;aspect=fixed;fontStyle=1;fontSize=13;spacingTop=-7;" parent="1" vertex="1"><mxGeometry x="426.6504065040651" y="479.82156133829" width="65" height="65" as="geometry"/></mxCell><mxCell id="25" value="" style="edgeStyle=none;rounded=0;html=1;exitX=1;exitY=0.5;entryX=0;entryY=0.5;jettySize=auto;orthogonalLoop=1;fontStyle=1;fontSize=13;spacingTop=-7;" parent="1" source="2" target="11" edge="1"><mxGeometry relative="1" as="geometry"/></mxCell><mxCell id="35" value="" style="edgeStyle=none;rounded=0;html=1;exitX=1;exitY=0.5;entryX=0;entryY=0.5;jettySize=auto;orthogonalLoop=1;fontStyle=1;fontSize=13;spacingTop=-7;" parent="1" source="3" target="11" edge="1"><mxGeometry relative="1" as="geometry"/></mxCell><mxCell id="38" value="" style="edgeStyle=none;rounded=0;html=1;exitX=1;exitY=0.5;entryX=0;entryY=0.5;jettySize=auto;orthogonalLoop=1;fontStyle=1;fontSize=13;spacingTop=-7;" parent="1" source="4" target="11" edge="1"><mxGeometry relative="1" as="geometry"/></mxCell><mxCell id="42" value="" style="edgeStyle=none;rounded=0;html=1;exitX=1;exitY=0.5;entryX=0;entryY=0.5;jettySize=auto;orthogonalLoop=1;fontStyle=1;fontSize=13;spacingTop=-7;" parent="1" source="5" target="11" edge="1"><mxGeometry relative="1" as="geometry"/></mxCell><mxCell id="47" value="" style="edgeStyle=none;rounded=0;html=1;exitX=1;exitY=0.5;entryX=0;entryY=0.5;jettySize=auto;orthogonalLoop=1;fontStyle=1;fontSize=13;spacingTop=-7;" parent="1" source="6" target="11" edge="1"><mxGeometry relative="1" as="geometry"/></mxCell><mxCell id="12" value="a&lt;sub&gt;1&lt;/sub&gt;&lt;sup&gt;[3]&lt;/sup&gt;" style="ellipse;whiteSpace=wrap;html=1;aspect=fixed;fontStyle=1;fontSize=13;spacingTop=-7;" parent="1" vertex="1"><mxGeometry x="559.3333333333333" y="221.97769516728624" width="65" height="65" as="geometry"/></mxCell><mxCell id="48" value="" style="edgeStyle=none;rounded=0;html=1;exitX=1;exitY=0.5;entryX=0;entryY=0.5;jettySize=auto;orthogonalLoop=1;fontStyle=1;fontSize=13;spacingTop=-7;" parent="1" source="7" target="12" edge="1"><mxGeometry relative="1" as="geometry"/></mxCell><mxCell id="51" value="" style="edgeStyle=none;rounded=0;html=1;exitX=1;exitY=0.5;entryX=0;entryY=0.5;jettySize=auto;orthogonalLoop=1;fontStyle=1;fontSize=13;spacingTop=-7;" parent="1" source="8" target="12" edge="1"><mxGeometry relative="1" as="geometry"/></mxCell><mxCell id="54" value="" style="edgeStyle=none;rounded=0;html=1;exitX=1;exitY=0.5;entryX=0;entryY=0.5;jettySize=auto;orthogonalLoop=1;fontStyle=1;fontSize=13;spacingTop=-7;" parent="1" source="9" target="12" edge="1"><mxGeometry relative="1" as="geometry"/></mxCell><mxCell id="57" value="" style="edgeStyle=none;rounded=0;html=1;exitX=1;exitY=0.5;entryX=0;entryY=0.5;jettySize=auto;orthogonalLoop=1;fontStyle=1;fontSize=13;spacingTop=-7;" parent="1" source="10" target="12" edge="1"><mxGeometry relative="1" as="geometry"/></mxCell><mxCell id="60" value="" style="edgeStyle=none;rounded=0;html=1;exitX=1;exitY=0.5;entryX=0;entryY=0.5;jettySize=auto;orthogonalLoop=1;fontStyle=1;fontSize=13;spacingTop=-7;" parent="1" source="11" target="12" edge="1"><mxGeometry relative="1" as="geometry"/></mxCell><mxCell id="13" value="a&lt;sub&gt;2&lt;/sub&gt;&lt;sup&gt;[3]&lt;/sup&gt;" style="ellipse;whiteSpace=wrap;html=1;aspect=fixed;fontStyle=1;fontSize=13;spacingTop=-7;" parent="1" vertex="1"><mxGeometry x="559.3333333333333" y="307.9256505576208" width="65" height="65" as="geometry"/></mxCell><mxCell id="49" value="" style="edgeStyle=none;rounded=0;html=1;exitX=1;exitY=0.5;entryX=0;entryY=0.5;jettySize=auto;orthogonalLoop=1;fontStyle=1;fontSize=13;spacingTop=-7;" parent="1" source="7" target="13" edge="1"><mxGeometry relative="1" as="geometry"/></mxCell><mxCell id="52" value="" style="edgeStyle=none;rounded=0;html=1;exitX=1;exitY=0.5;entryX=0;entryY=0.5;jettySize=auto;orthogonalLoop=1;fontStyle=1;fontSize=13;spacingTop=-7;" parent="1" source="8" target="13" edge="1"><mxGeometry relative="1" as="geometry"/></mxCell><mxCell id="55" value="" style="edgeStyle=none;rounded=0;html=1;exitX=1;exitY=0.5;entryX=0;entryY=0.5;jettySize=auto;orthogonalLoop=1;fontStyle=1;fontSize=13;spacingTop=-7;" parent="1" source="9" target="13" edge="1"><mxGeometry relative="1" as="geometry"/></mxCell><mxCell id="58" value="" style="edgeStyle=none;rounded=0;html=1;exitX=1;exitY=0.5;entryX=0;entryY=0.5;jettySize=auto;orthogonalLoop=1;fontStyle=1;fontSize=13;spacingTop=-7;" parent="1" source="10" target="13" edge="1"><mxGeometry relative="1" as="geometry"/></mxCell><mxCell id="61" value="" style="edgeStyle=none;rounded=0;html=1;exitX=1;exitY=0.5;entryX=0;entryY=0.5;jettySize=auto;orthogonalLoop=1;fontStyle=1;fontSize=13;spacingTop=-7;" parent="1" source="11" target="13" edge="1"><mxGeometry relative="1" as="geometry"/></mxCell><mxCell id="14" value="a&lt;sub&gt;3&lt;/sub&gt;&lt;sup&gt;[3]&lt;/sup&gt;" style="ellipse;whiteSpace=wrap;html=1;aspect=fixed;fontStyle=1;fontSize=13;spacingTop=-7;" parent="1" vertex="1"><mxGeometry x="559.3333333333333" y="393.8736059479554" width="65" height="65" as="geometry"/></mxCell><mxCell id="50" value="" style="edgeStyle=none;rounded=0;html=1;exitX=1;exitY=0.5;entryX=0;entryY=0.5;jettySize=auto;orthogonalLoop=1;fontStyle=1;fontSize=13;spacingTop=-7;" parent="1" source="7" target="14" edge="1"><mxGeometry relative="1" as="geometry"/></mxCell><mxCell id="53" value="" style="edgeStyle=none;rounded=0;html=1;exitX=1;exitY=0.5;entryX=0;entryY=0.5;jettySize=auto;orthogonalLoop=1;fontStyle=1;fontSize=13;spacingTop=-7;" parent="1" source="8" target="14" edge="1"><mxGeometry relative="1" as="geometry"/></mxCell><mxCell id="56" value="" style="edgeStyle=none;rounded=0;html=1;exitX=1;exitY=0.5;entryX=0;entryY=0.5;jettySize=auto;orthogonalLoop=1;fontStyle=1;fontSize=13;spacingTop=-7;" parent="1" source="9" target="14" edge="1"><mxGeometry relative="1" as="geometry"/></mxCell><mxCell id="59" value="" style="edgeStyle=none;rounded=0;html=1;exitX=1;exitY=0.5;jettySize=auto;orthogonalLoop=1;fontStyle=1;fontSize=13;spacingTop=-7;" parent="1" source="10" target="14" edge="1"><mxGeometry relative="1" as="geometry"/></mxCell><mxCell id="62" value="" style="edgeStyle=none;rounded=0;html=1;exitX=1;exitY=0.5;entryX=0;entryY=0.5;jettySize=auto;orthogonalLoop=1;fontStyle=1;fontSize=13;spacingTop=-7;" parent="1" source="11" target="14" edge="1"><mxGeometry relative="1" as="geometry"/></mxCell><mxCell id="77" value="" style="edgeStyle=none;rounded=0;html=1;exitX=1;exitY=0.5;entryX=0;entryY=0.5;jettySize=auto;orthogonalLoop=1;fontStyle=1;fontSize=13;spacingTop=-7;" parent="1" source="72" target="2" edge="1"><mxGeometry relative="1" as="geometry"/></mxCell><mxCell id="78" value="" style="edgeStyle=none;rounded=0;html=1;exitX=1;exitY=0.5;entryX=0;entryY=0.5;jettySize=auto;orthogonalLoop=1;fontStyle=1;fontSize=13;spacingTop=-7;" parent="1" source="72" target="3" edge="1"><mxGeometry relative="1" as="geometry"/></mxCell><mxCell id="79" value="" style="edgeStyle=none;rounded=0;html=1;exitX=1;exitY=0.5;entryX=0;entryY=0.5;jettySize=auto;orthogonalLoop=1;fontStyle=1;fontSize=13;spacingTop=-7;" parent="1" source="72" target="4" edge="1"><mxGeometry relative="1" as="geometry"/></mxCell><mxCell id="80" value="" style="edgeStyle=none;rounded=0;html=1;exitX=1;exitY=0.5;entryX=0;entryY=0.5;jettySize=auto;orthogonalLoop=1;fontStyle=1;fontSize=13;spacingTop=-7;" parent="1" source="72" target="5" edge="1"><mxGeometry relative="1" as="geometry"/></mxCell><mxCell id="81" value="" style="edgeStyle=none;rounded=0;html=1;exitX=1;exitY=0.5;entryX=0;entryY=0.5;jettySize=auto;orthogonalLoop=1;fontStyle=1;fontSize=13;spacingTop=-7;" parent="1" source="72" target="6" edge="1"><mxGeometry relative="1" as="geometry"/></mxCell><mxCell id="72" value="x1" style="ellipse;whiteSpace=wrap;html=1;aspect=fixed;fontStyle=1;labelBackgroundColor=none;fontSize=13;spacingTop=-7;" parent="1" vertex="1"><mxGeometry x="139.1707317073171" y="221.97769516728624" width="65" height="65" as="geometry"/></mxCell><mxCell id="82" value="" style="edgeStyle=none;rounded=0;html=1;exitX=1;exitY=0.5;entryX=0;entryY=0.5;jettySize=auto;orthogonalLoop=1;fontStyle=1;fontSize=13;spacingTop=-7;" parent="1" source="73" target="2" edge="1"><mxGeometry relative="1" as="geometry"/></mxCell><mxCell id="83" value="" style="edgeStyle=none;rounded=0;html=1;exitX=1;exitY=0.5;entryX=0;entryY=0.5;jettySize=auto;orthogonalLoop=1;fontStyle=1;fontSize=13;spacingTop=-7;" parent="1" source="73" target="3" edge="1"><mxGeometry relative="1" as="geometry"/></mxCell><mxCell id="84" value="" style="edgeStyle=none;rounded=0;html=1;exitX=1;exitY=0.5;entryX=0;entryY=0.5;jettySize=auto;orthogonalLoop=1;fontStyle=1;fontSize=13;spacingTop=-7;" parent="1" source="73" target="4" edge="1"><mxGeometry relative="1" as="geometry"/></mxCell><mxCell id="85" value="" style="edgeStyle=none;rounded=0;html=1;exitX=1;exitY=0.5;entryX=0;entryY=0.5;jettySize=auto;orthogonalLoop=1;fontStyle=1;fontSize=13;spacingTop=-7;" parent="1" source="73" target="5" edge="1"><mxGeometry relative="1" as="geometry"/></mxCell><mxCell id="86" value="" style="edgeStyle=none;rounded=0;html=1;exitX=1;exitY=0.5;entryX=0;entryY=0.5;jettySize=auto;orthogonalLoop=1;fontStyle=1;fontSize=13;spacingTop=-7;" parent="1" source="73" target="6" edge="1"><mxGeometry relative="1" as="geometry"/></mxCell><mxCell id="73" value="x2" style="ellipse;whiteSpace=wrap;html=1;aspect=fixed;fontStyle=1;fontSize=13;spacingTop=-7;" parent="1" vertex="1"><mxGeometry x="139.1707317073171" y="307.9256505576208" width="65" height="65" as="geometry"/></mxCell><mxCell id="87" value="" style="edgeStyle=none;rounded=0;html=1;exitX=1;exitY=0.5;entryX=0;entryY=0.5;jettySize=auto;orthogonalLoop=1;fontStyle=1;fontSize=13;spacingTop=-7;" parent="1" source="74" target="2" edge="1"><mxGeometry relative="1" as="geometry"/></mxCell><mxCell id="88" value="" style="edgeStyle=none;rounded=0;html=1;exitX=1;exitY=0.5;entryX=0;entryY=0.5;jettySize=auto;orthogonalLoop=1;fontStyle=1;fontSize=13;spacingTop=-7;" parent="1" source="74" target="3" edge="1"><mxGeometry relative="1" as="geometry"/></mxCell><mxCell id="89" value="" style="edgeStyle=none;rounded=0;html=1;exitX=1;exitY=0.5;entryX=0;entryY=0.5;jettySize=auto;orthogonalLoop=1;fontStyle=1;fontSize=13;spacingTop=-7;" parent="1" source="74" target="4" edge="1"><mxGeometry relative="1" as="geometry"/></mxCell><mxCell id="90" value="" style="edgeStyle=none;rounded=0;html=1;exitX=1;exitY=0.5;entryX=0;entryY=0.5;jettySize=auto;orthogonalLoop=1;fontStyle=1;fontSize=13;spacingTop=-7;" parent="1" source="74" target="5" edge="1"><mxGeometry relative="1" as="geometry"/></mxCell><mxCell id="91" value="" style="edgeStyle=none;rounded=0;html=1;exitX=1;exitY=0.5;entryX=0;entryY=0.5;jettySize=auto;orthogonalLoop=1;fontStyle=1;fontSize=13;spacingTop=-7;" parent="1" source="74" target="6" edge="1"><mxGeometry relative="1" as="geometry"/></mxCell><mxCell id="74" value="x3" style="ellipse;whiteSpace=wrap;html=1;aspect=fixed;fontStyle=1;fontSize=13;spacingTop=-7;" parent="1" vertex="1"><mxGeometry x="139.1707317073171" y="393.8736059479554" width="65" height="65" as="geometry"/></mxCell><mxCell id="75" value="a&lt;sub&gt;1&lt;/sub&gt;&lt;sup&gt;[4]&lt;/sup&gt;" style="ellipse;whiteSpace=wrap;html=1;aspect=fixed;fontStyle=1;fontSize=13;spacingTop=-7;" parent="1" vertex="1"><mxGeometry x="680.959349593496" y="307.9256505576208" width="65" height="65" as="geometry"/></mxCell><mxCell id="92" value="" style="edgeStyle=none;rounded=0;html=1;exitX=1;exitY=0.5;entryX=0;entryY=0.5;jettySize=auto;orthogonalLoop=1;fontStyle=1;fontSize=13;spacingTop=-7;" parent="1" source="12" target="75" edge="1"><mxGeometry relative="1" as="geometry"/></mxCell><mxCell id="93" value="" style="edgeStyle=none;rounded=0;html=1;exitX=1;exitY=0.5;entryX=0;entryY=0.5;jettySize=auto;orthogonalLoop=1;fontStyle=1;fontSize=13;spacingTop=-7;" parent="1" source="13" target="75" edge="1"><mxGeometry relative="1" as="geometry"/></mxCell><mxCell id="94" value="" style="edgeStyle=none;rounded=0;html=1;exitX=1;exitY=0.5;entryX=0;entryY=0.5;jettySize=auto;orthogonalLoop=1;fontStyle=1;fontSize=13;spacingTop=-7;" parent="1" source="14" target="75" edge="1"><mxGeometry relative="1" as="geometry"/></mxCell><mxCell id="95" value="A&lt;sup&gt;[1]&lt;/sup&gt;" style="text;html=1;resizable=0;points=[];autosize=1;align=left;verticalAlign=top;spacingTop=-7;fontStyle=1;fontSize=13;" parent="1" vertex="1"><mxGeometry x="293.9674796747968" y="103.79925650557621" width="40" height="20" as="geometry"/></mxCell><mxCell id="114" value="W&lt;sup&gt;[1]&lt;/sup&gt;" style="text;html=1;resizable=0;points=[];autosize=1;align=left;verticalAlign=top;spacingTop=-4;fontSize=13;fontStyle=1" parent="1" vertex="1"><mxGeometry x="183.39837398373984" y="152.1449814126394" width="40" height="20" as="geometry"/></mxCell><mxCell id="115" value="b&lt;sup&gt;[1]&lt;/sup&gt;" style="text;html=1;resizable=0;points=[];autosize=1;align=left;verticalAlign=top;spacingTop=-4;fontSize=13;fontStyle=1" parent="1" vertex="1"><mxGeometry x="216.5691056910569" y="152.1449814126394" width="30" height="20" as="geometry"/></mxCell><mxCell id="121" value="&lt;div&gt;A&lt;sup&gt;[2]&lt;/sup&gt;&lt;/div&gt;" style="text;html=1;resizable=0;points=[];autosize=1;align=left;verticalAlign=top;spacingTop=-7;fontStyle=1;fontSize=13;" parent="1" vertex="1"><mxGeometry x="439.1788617886179" y="104.79925650557621" width="40" height="20" as="geometry"/></mxCell><mxCell id="122" value="A&lt;sup&gt;[3]&lt;/sup&gt;" style="text;html=1;resizable=0;points=[];autosize=1;align=left;verticalAlign=top;spacingTop=-7;fontStyle=1;fontSize=13;" parent="1" vertex="1"><mxGeometry x="581.4471544715448" y="189.7472118959108" width="40" height="20" as="geometry"/></mxCell><mxCell id="123" value="A&lt;sup&gt;[4]&lt;/sup&gt;" style="text;html=1;resizable=0;points=[];autosize=1;align=left;verticalAlign=top;spacingTop=-7;fontStyle=1;fontSize=13;" parent="1" vertex="1"><mxGeometry x="686.4878048780488" y="275.69516728624535" width="40" height="20" as="geometry"/></mxCell><mxCell id="124" value="W&lt;sup&gt;[2]&lt;/sup&gt;" style="text;html=1;resizable=0;points=[];autosize=1;align=left;verticalAlign=top;spacingTop=-4;fontSize=13;fontStyle=1" parent="1" vertex="1"><mxGeometry x="349.2520325203252" y="125.28624535315986" width="40" height="20" as="geometry"/></mxCell><mxCell id="125" value="b&lt;sup&gt;[2]&lt;/sup&gt;" style="text;html=1;resizable=0;points=[];autosize=1;align=left;verticalAlign=top;spacingTop=-4;fontSize=13;fontStyle=1" parent="1" vertex="1"><mxGeometry x="382.4227642276423" y="125.28624535315986" width="30" height="20" as="geometry"/></mxCell><mxCell id="126" value="W&lt;sup&gt;[3]&lt;/sup&gt;" style="text;html=1;resizable=0;points=[];autosize=1;align=left;verticalAlign=top;spacingTop=-4;fontSize=13;fontStyle=1" parent="1" vertex="1"><mxGeometry x="515.1056910569106" y="152.1449814126394" width="40" height="20" as="geometry"/></mxCell><mxCell id="127" value="b&lt;sup&gt;[3]&lt;/sup&gt;" style="text;html=1;resizable=0;points=[];autosize=1;align=left;verticalAlign=top;spacingTop=-4;fontSize=13;fontStyle=1" parent="1" vertex="1"><mxGeometry x="548.2764227642276" y="152.1449814126394" width="30" height="20" as="geometry"/></mxCell><mxCell id="128" value="W&lt;sup&gt;[4]&lt;/sup&gt;" style="text;html=1;resizable=0;points=[];autosize=1;align=left;verticalAlign=top;spacingTop=-4;fontSize=13;fontStyle=1" parent="1" vertex="1"><mxGeometry x="642.260162601626" y="238.09293680297398" width="40" height="20" as="geometry"/></mxCell><mxCell id="129" value="b&lt;sup&gt;[4]&lt;/sup&gt;" style="text;html=1;resizable=0;points=[];autosize=1;align=left;verticalAlign=top;spacingTop=-4;fontSize=13;fontStyle=1" parent="1" vertex="1"><mxGeometry x="675.4308943089432" y="238.09293680297398" width="30" height="20" as="geometry"/></mxCell><mxCell id="130" value="A&lt;sup&gt;[0]&lt;/sup&gt;" style="text;html=1;resizable=0;points=[];autosize=1;align=left;verticalAlign=top;spacingTop=-7;fontStyle=1;fontSize=13;" parent="1" vertex="1"><mxGeometry x="150.22764227642276" y="200.4907063197026" width="40" height="20" as="geometry"/></mxCell><mxCell id="132" value="Hidden Layers" style="text;html=1;resizable=0;points=[];autosize=1;align=left;verticalAlign=top;spacingTop=-4;fontSize=13;fontStyle=1" parent="1" vertex="1"><mxGeometry x="382.4227642276423" y="41.486988847583646" width="100" height="20" as="geometry"/></mxCell><mxCell id="133" value="Input Layer" style="text;html=1;resizable=0;points=[];autosize=1;align=left;verticalAlign=top;spacingTop=-4;fontSize=13;fontStyle=1" parent="1" vertex="1"><mxGeometry x="128.1138211382114" y="458.3345724907063" width="80" height="20" as="geometry"/></mxCell><mxCell id="135" value="Output Layer" style="text;html=1;resizable=0;points=[];autosize=1;align=left;verticalAlign=top;spacingTop=-4;fontSize=13;fontStyle=1" parent="1" vertex="1"><mxGeometry x="664.3739837398374" y="383.13011152416357" width="90" height="20" as="geometry"/></mxCell><mxCell id="145" value="&lt;div&gt;n&lt;sup&gt;[0]&lt;/sup&gt;= 3&lt;/div&gt;&lt;div&gt;&lt;br&gt;&lt;/div&gt;" style="text;html=1;resizable=0;points=[];autosize=1;align=left;verticalAlign=top;spacingTop=-4;fontSize=13;fontStyle=1" parent="1" vertex="1"><mxGeometry x="150.22764227642276" y="490.5650557620818" width="50" height="40" as="geometry"/></mxCell><mxCell id="146" value="&lt;div&gt;n&lt;sup&gt;[1]&lt;/sup&gt;= 5&lt;br&gt;&lt;/div&gt;&lt;div&gt;&lt;br&gt;&lt;/div&gt;" style="text;html=1;resizable=0;points=[];autosize=1;align=left;verticalAlign=top;spacingTop=-4;fontSize=13;fontStyle=1" parent="1" vertex="1"><mxGeometry x="290.910569105691" y="544.539033457249" width="50" height="40" as="geometry"/></mxCell><mxCell id="147" value="&lt;div&gt;n&lt;sup&gt;[2]&lt;/sup&gt;= 5&lt;br&gt;&lt;/div&gt;&lt;div&gt;&lt;br&gt;&lt;/div&gt;" style="text;html=1;resizable=0;points=[];autosize=1;align=left;verticalAlign=top;spacingTop=-4;fontSize=13;fontStyle=1" parent="1" vertex="1"><mxGeometry x="441.6504065040651" y="549.539033457249" width="50" height="40" as="geometry"/></mxCell><mxCell id="149" value="&lt;div&gt;n&lt;sup&gt;[3]&lt;/sup&gt;= 3&lt;br&gt;&lt;/div&gt;&lt;div&gt;&lt;br&gt;&lt;/div&gt;" style="text;html=1;resizable=0;points=[];autosize=1;align=left;verticalAlign=top;spacingTop=-4;fontSize=13;fontStyle=1" parent="1" vertex="1"><mxGeometry x="559.3333333333333" y="458.3345724907063" width="50" height="40" as="geometry"/></mxCell><mxCell id="150" value="&lt;div&gt;n&lt;sup&gt;[4]&lt;/sup&gt;= 1&lt;/div&gt;&lt;div&gt;&lt;br&gt;&lt;/div&gt;&lt;div&gt;&lt;br&gt;&lt;/div&gt;" style="text;html=1;resizable=0;points=[];autosize=1;align=left;verticalAlign=top;spacingTop=-4;fontSize=13;fontStyle=1" parent="1" vertex="1"><mxGeometry x="675.4308943089432" y="415.36059479553904" width="50" height="50" as="geometry"/></mxCell><mxCell id="151" value="&lt;b&gt;m = samples&lt;/b&gt;" style="text;html=1;resizable=0;points=[];autosize=1;align=left;verticalAlign=top;spacingTop=-4;fontSize=13;" parent="1" vertex="1"><mxGeometry x="128.1138211382114" y="512.0520446096655" width="90" height="20" as="geometry"/></mxCell></root></mxGraphModel>